<?xml version="1.0" encoding="UTF-8" standalone="no"?>
<!-- Created with Inkscape (http://www.inkscape.org/) -->

<svg
   width="1000mm"
   height="1000mm"
   viewBox="0 0 1000 1000"
   version="1.1"
   id="svg5"
   inkscape:version="1.1 (c68e22c387, 2021-05-23)"
   sodipodi:docname="drawing.svg"
   xmlns:inkscape="http://www.inkscape.org/namespaces/inkscape"
   xmlns:sodipodi="http://sodipodi.sourceforge.net/DTD/sodipodi-0.dtd"
   xmlns:xlink="http://www.w3.org/1999/xlink"
   xmlns="http://www.w3.org/2000/svg"
   xmlns:svg="http://www.w3.org/2000/svg">
  <sodipodi:namedview
     id="namedview7"
     pagecolor="#505050"
     bordercolor="#eeeeee"
     borderopacity="1"
     inkscape:pageshadow="0"
     inkscape:pageopacity="0"
     inkscape:pagecheckerboard="0"
     inkscape:document-units="mm"
     showgrid="false"
     width="1000mm"
     inkscape:zoom="0.18096596"
     inkscape:cx="1718.5553"
     inkscape:cy="1920.2507"
     inkscape:window-width="1920"
     inkscape:window-height="1001"
     inkscape:window-x="-9"
     inkscape:window-y="-9"
     inkscape:window-maximized="1"
     inkscape:current-layer="layer1" />
  <defs
     id="defs2">
    <clipPath
       id="clip0">
      <rect
         width="71"
         height="55"
         fill="white"
         id="rect5237" />
    </clipPath>
    <linearGradient
       id="linearGradient2795">
      <stop
         style="stop-color:#b8b8b8;stop-opacity:0.49803922"
         offset="0"
         id="stop2797" />
      <stop
         style="stop-color:#7f7f7f;stop-opacity:0"
         offset="1"
         id="stop2799" />
    </linearGradient>
    <linearGradient
       id="linearGradient2787">
      <stop
         style="stop-color:#7f7f7f;stop-opacity:0.5"
         offset="0"
         id="stop2789" />
      <stop
         style="stop-color:#7f7f7f;stop-opacity:0"
         offset="1"
         id="stop2791" />
    </linearGradient>
    <linearGradient
       id="linearGradient3676">
      <stop
         style="stop-color:#b2b2b2;stop-opacity:0.5"
         offset="0"
         id="stop3678" />
      <stop
         style="stop-color:#b3b3b3;stop-opacity:0"
         offset="1"
         id="stop3680" />
    </linearGradient>
    <linearGradient
       id="linearGradient3236">
      <stop
         style="stop-color:#f4f4f4;stop-opacity:1"
         offset="0"
         id="stop3244" />
      <stop
         style="stop-color:#ffffff;stop-opacity:1"
         offset="1"
         id="stop3240" />
    </linearGradient>
    <linearGradient
       id="linearGradient4671">
      <stop
         style="stop-color:#ffd43b;stop-opacity:1"
         offset="0"
         id="stop4673" />
      <stop
         style="stop-color:#ffe873;stop-opacity:1"
         offset="1"
         id="stop4675" />
    </linearGradient>
    <linearGradient
       id="linearGradient4689">
      <stop
         style="stop-color:#5a9fd4;stop-opacity:1"
         offset="0"
         id="stop4691" />
      <stop
         style="stop-color:#306998;stop-opacity:1"
         offset="1"
         id="stop4693" />
    </linearGradient>
    <linearGradient
       x1="224.23996"
       y1="144.75717"
       x2="-65.308502"
       y2="144.75717"
       id="linearGradient2987"
       xlink:href="#linearGradient4671"
       gradientUnits="userSpaceOnUse"
       gradientTransform="translate(100.2702,99.61116)" />
    <linearGradient
       x1="172.94208"
       y1="77.475983"
       x2="26.670298"
       y2="76.313133"
       id="linearGradient2990"
       xlink:href="#linearGradient4689"
       gradientUnits="userSpaceOnUse"
       gradientTransform="translate(100.2702,99.61116)" />
    <linearGradient
       x1="224.23996"
       y1="144.75717"
       x2="-65.308502"
       y2="144.75717"
       id="linearGradient2255"
       xlink:href="#linearGradient4671"
       gradientUnits="userSpaceOnUse"
       gradientTransform="matrix(0.562541,0,0,0.567972,-11.5974,-7.60954)" />
    <linearGradient
       x1="172.94208"
       y1="76.176224"
       x2="26.670298"
       y2="76.313133"
       id="linearGradient2258"
       xlink:href="#linearGradient4689"
       gradientUnits="userSpaceOnUse"
       gradientTransform="matrix(0.562541,0,0,0.567972,-11.5974,-7.60954)" />
    <radialGradient
       cx="61.518883"
       cy="132.28575"
       r="29.036913"
       fx="61.518883"
       fy="132.28575"
       id="radialGradient2801"
       xlink:href="#linearGradient2795"
       gradientUnits="userSpaceOnUse"
       gradientTransform="matrix(1,0,0,0.177966,0,108.7434)" />
    <linearGradient
       x1="150.96111"
       y1="192.35176"
       x2="112.03144"
       y2="137.27299"
       id="linearGradient1475"
       xlink:href="#linearGradient4671"
       gradientUnits="userSpaceOnUse"
       gradientTransform="matrix(19.126604,0,0,19.31126,-509.70365,-397.885)" />
    <linearGradient
       x1="26.648937"
       y1="20.603781"
       x2="135.66525"
       y2="114.39767"
       id="linearGradient1478"
       xlink:href="#linearGradient4689"
       gradientUnits="userSpaceOnUse"
       gradientTransform="matrix(19.126604,0,0,19.31126,-509.70365,-397.885)" />
    <radialGradient
       cx="61.518883"
       cy="132.28575"
       r="29.036913"
       fx="61.518883"
       fy="132.28575"
       id="radialGradient1480"
       xlink:href="#linearGradient2795"
       gradientUnits="userSpaceOnUse"
       gradientTransform="matrix(5.9468574e-7,-8.1582862,35.859108,1.2891397e-5,-2840.267,4850.1585)" />
    <filter
       style="color-interpolation-filters:sRGB;"
       inkscape:label="Drop Shadow"
       id="filter8378"
       x="-0.16901408"
       y="-0.22173924"
       width="1.3380282"
       height="1.4434785">
      <feFlood
         flood-opacity="0.498039"
         flood-color="rgb(0,0,0)"
         result="flood"
         id="feFlood8368" />
      <feComposite
         in="flood"
         in2="SourceGraphic"
         operator="out"
         result="composite1"
         id="feComposite8370" />
      <feGaussianBlur
         in="composite1"
         stdDeviation="5"
         result="blur"
         id="feGaussianBlur8372" />
      <feOffset
         dx="0"
         dy="0"
         result="offset"
         id="feOffset8374" />
      <feComposite
         in="offset"
         in2="SourceGraphic"
         operator="in"
         result="composite2"
         id="feComposite8376" />
    </filter>
  </defs>
  <g
     inkscape:label="Layer 1"
     inkscape:groupmode="layer"
     id="layer1">
    <path
       id="path4429"
       style="display:inline;opacity:1;fill:#5865f2;fill-opacity:1;stroke-width:2.06657"
       inkscape:label="path4429"
       d="m 1889.7637,188.97656 c -451.0769,0 -883.6792,179.18892 -1202.6387,498.14844 -318.95952,318.9595 -498.14844,751.5618 -498.14844,1202.6387 0,451.0768 179.18892,883.6791 498.14844,1202.6386 318.9595,318.9596 751.5618,498.1485 1202.6387,498.1485 451.0768,0 883.6791,-179.1889 1202.6386,-498.1485 318.9596,-318.9595 498.1485,-751.5618 498.1485,-1202.6386 0,-451.0769 -179.1889,-883.6792 -498.1485,-1202.6387 C 2773.4428,368.16548 2340.8405,188.97656 1889.7637,188.97656 Z m 0,1228.34574 a 472.44098,472.44094 0 0 1 472.4414,472.4414 472.44098,472.44094 0 0 1 -472.4414,472.4414 472.44098,472.44094 0 0 1 -472.4414,-472.4414 472.44098,472.44094 0 0 1 472.4414,-472.4414 z"
       transform="scale(0.26458333)" />
    <g
       id="g2303"
       transform="matrix(0.26458333,0,0,0.26458333,-75.785794,167.36909)" />
    <g
       style="display:inline;fill:none;filter:url(#filter8378)"
       id="g5250"
       transform="matrix(3.5211267,0,0,3.5211267,375,148.5502)">
      <path
         d="M 60.1045,4.8978 C 55.5792,2.8214 50.7265,1.2916 45.6527,0.41542 45.5603,0.39851 45.468,0.440769 45.4204,0.525289 44.7963,1.6353 44.105,3.0834 43.6209,4.2216 38.1637,3.4046 32.7345,3.4046 27.3892,4.2216 26.905,3.0581 26.1886,1.6353 25.5617,0.525289 25.5141,0.443589 25.4218,0.40133 25.3294,0.41542 20.2584,1.2888 15.4057,2.8186 10.8776,4.8978 10.8384,4.9147 10.8048,4.9429 10.7825,4.9795 1.57795,18.7309 -0.943561,32.1443 0.293408,45.3914 c 0.005597,0.0648 0.041978,0.1268 0.092353,0.1662 6.072899,4.4598 11.955539,7.1673 17.728939,8.9619 0.0924,0.0282 0.1903,-0.0056 0.2491,-0.0817 1.3657,-1.865 2.5831,-3.8315 3.6269,-5.8995 0.0616,-0.1211 0.0028,-0.2648 -0.1231,-0.3127 -1.931,-0.7325 -3.7697,-1.6256 -5.5384,-2.6398 -0.1399,-0.0817 -0.1511,-0.2818 -0.0224,-0.3776 0.3722,-0.2789 0.7445,-0.5691 1.0999,-0.8621 0.0643,-0.0535 0.1539,-0.0648 0.2295,-0.031 11.6196,5.3051 24.1992,5.3051 35.6817,0 0.0756,-0.0366 0.1652,-0.0253 0.2323,0.0282 0.3555,0.293 0.7277,0.586 1.1027,0.8649 0.1287,0.0958 0.1203,0.2959 -0.0196,0.3776 -1.7687,1.0339 -3.6074,1.9073 -5.5412,2.637 -0.1259,0.0479 -0.1819,0.1944 -0.1203,0.3155 1.0662,2.0651 2.2836,4.0316 3.6241,5.8967 0.056,0.0789 0.1567,0.1127 0.2491,0.0845 5.8014,-1.7946 11.684,-4.5021 17.7569,-8.9619 0.0532,-0.0394 0.0868,-0.0986 0.0924,-0.1634 C 72.1747,30.0791 68.2147,16.7757 60.1968,4.9823 60.1772,4.9429 60.1437,4.9147 60.1045,4.8978 Z M 23.7259,37.3253 c -3.4983,0 -6.3808,-3.2117 -6.3808,-7.156 0,-3.9443 2.8266,-7.156 6.3808,-7.156 3.5821,0 6.4367,3.2399 6.3807,7.156 0,3.9443 -2.8266,7.156 -6.3807,7.156 z m 23.5919,0 c -3.4982,0 -6.3807,-3.2117 -6.3807,-7.156 0,-3.9443 2.8265,-7.156 6.3807,-7.156 3.5822,0 6.4367,3.2399 6.3808,7.156 0,3.9443 -2.7986,7.156 -6.3808,7.156 z"
         fill="#5865f2"
         id="path5233"
         style="display:inline" />
    </g>
    <path
       id="path8605"
       style="fill:#4c36b5;fill-opacity:1;stroke:none;stroke-width:0.999999px;stroke-linecap:butt;stroke-linejoin:miter;stroke-opacity:1"
       d="m 3472.2129,1267.7305 c -169.5588,890.5793 -686.7847,1210.4712 -1372.3711,1246.5547 -601.677,31.6672 -1032.8137,307.8836 -1211.89844,749.5898 289.17644,210.8272 639.46824,326.6758 1001.82034,326.6758 451.0768,0 883.6791,-179.1889 1202.6386,-498.1485 318.9596,-318.9595 498.1485,-751.5618 498.1485,-1202.6386 0,-215.0377 -41.1627,-425.7034 -118.3379,-622.0332 z"
       transform="scale(0.26458333)" />
    <path
       id="path10215"
       style="fill:#d3a82f;fill-opacity:1;stroke:none;stroke-width:0.999999px;stroke-linecap:butt;stroke-linejoin:miter;stroke-opacity:1"
       d="m 3493.1875,2456.4863 c -251.5367,289.5539 -602.9772,414.044 -1015.3926,435.75 -533.2365,28.0651 -932.3607,248.3261 -1140.959,605.5157 176.3333,60.6388 362.9266,92.7988 552.9278,92.7988 451.0768,0 883.6791,-179.1889 1202.6386,-498.1485 181.1192,-181.119 317.0206,-398.9348 400.7852,-635.916 z"
       transform="scale(0.26458333)" />
  </g>
</svg>
